<svg version="1" xmlns="http://www.w3.org/2000/svg" width="1082.667" height="1082.667" viewBox="0 0 812.000000 812.000000"><path d="M245.9.4c-.2.2-4.7.6-10 1s-10.5.8-11.6 1c-1.1.3-4.4.7-7.3 1.1-6.4.8-5.6.7-20.5 4-39.4 8.9-68.2 27.6-85.3 55.5-7.9 12.9-16.8 36.4-19.7 52-.3 1.4-.7 3.6-1 5-.3 1.4-.8 4.5-1.1 7-.3 2.5-.8 5.6-1 7-.3 1.4-.8 4.7-1.1 7.5-.3 2.7-.8 154.7-1 337.7L86 812h158.6l.1-304.7c0-167.7.3-306.4.7-308.3.3-1.9.9-5.3 1.2-7.5 1.7-11.5 8.8-25.2 17.1-33.2 6.3-5.9 18.7-12.5 26.3-13.9 1.4-.3 5.2-1.1 8.5-1.7 10.5-2.2 111.2-1.4 121.6.9 17.4 3.8 29.1 8.4 40.3 15.8 22.7 14.9 37.9 36.5 45 64.1.3 1.1.8 3.3 1.1 5 .2 1.6.7 4.1 1 5.5.7 3.4 1.6 15 1.7 23 .3 20.8-4.9 43.6-13.8 60.5-3.7 7-5 9-6.1 9.8-.7.4-1.3 1.3-1.3 1.9 0 2.7-13.8 17.8-24.5 26.8-8.7 7.3-30.1 17.7-37.5 18.3-1.1.1-2 .4-2 .7 0 .3-.8.6-1.8.7-1 .1-4.7.7-8.3 1.4-3.5.6-16.6 1.3-29.1 1.4l-22.8.2-.1-2.6c-.1-1.4-.1-7.9-.1-14.5v-11.8l-4.5 4.3c-2.6 2.4-5.8 5.7-7.3 7.4-4.5 4.9-31.3 33.1-48.5 50.9-7.3 7.7-22.8 23.9-27.7 29.2l-3 3.2 5.7 5.8c3.1 3.3 11.6 12.2 18.8 19.8 7.3 7.6 15.9 16.7 19.2 20.1 3.3 3.5 13 13.6 21.5 22.5 23.4 24.6 24.8 26 25.3 26 .3 0 .5-6.1.4-13.5 0-7.4.1-13.7.4-13.9.2-.3 7.9-.7 16.9-1 19.8-.7 34.7-1.7 45.5-3.1 1.7-.2 5-.6 7.5-.9 2.5-.3 6.3-.9 8.5-1.2 2.2-.3 5.1-.8 6.5-.9 6-.8 14.5-2.2 14.5-2.5 0-.1.9-.3 2-.5 11.8-1.7 34.4-8 48-13.5 17.2-6.8 42.6-20.5 56.7-30.5 3.1-2.2 6.6-4.7 7.9-5.5 2.3-1.6 8.6-6.7 15.9-13.1 2.5-2.1 4.8-3.9 5.2-3.9.5 0 .8-.4.8-.8s3.3-4.1 7.3-8.2c20.1-20.8 37-48 47.5-76.5 3.9-10.8 8.5-26.6 9.6-33.5.3-1.9.8-4.6 1.1-6 .3-1.4.8-4.1 1-6 .3-1.9.7-4.4 1-5.5 2.6-12.3 2.6-58.9 0-79-3-22.9-9.6-48.8-17.2-67-4.1-9.9-11.4-24.9-13.2-26.9-.9-1-1.6-2.1-1.5-2.5.1-.7-1.8-3.9-5.7-9.8-1.6-2.3-2.9-4.4-2.9-4.7 0-.5-11.8-16.6-12.9-17.6-.3-.3-3.1-3.4-6.1-7-8.4-9.9-16.9-18.1-31.5-30.5-1.6-1.4-6.4-4.9-10.5-7.7-4.1-2.9-7.7-5.4-8-5.8-.3-.3-1.6-1.1-3-1.8-2.7-1.3-6.2-3.4-7-4.2-1.1-1.1-14.5-7.5-15.2-7.2-.5.1-.8-.2-.8-.7 0-.5-.8-1.1-1.7-1.4-1-.3-5.2-2-9.3-3.7-12.4-5.3-32.2-11.5-43-13.6-2.5-.4-7.2-1.5-10-2.1-.8-.2-3.3-.6-5.5-.8-2.2-.2-5.1-.6-6.4-.9-1.3-.3-4.9-.8-8-1.1-3.1-.4-6.7-.9-8.1-1.3C435.3.6 246.6-.3 245.9.4z"/><path d="M546.5 504.4c-14.4 7.4-36.5 15.4-51.5 18.5-13.2 2.8-18.8 4-22.1 4.5-2 .3-4.2.8-5 1-.8.3-3.6.8-6.4 1-2.7.3-6.1.8-7.5 1-1.4.3-5.2.8-8.5 1.1-3.3.3-7.8.7-10 1-6.3.8-14.1 1.4-26 2-6 .4-11.1.8-11.3 1-.2.2 2.5 5.9 6.1 12.7 3.6 6.7 8.4 16.1 10.8 20.8 2.4 4.7 4.6 8.7 4.9 9 .3.3 3.9 7.2 8 15.5 4.1 8.2 7.7 15.2 8 15.5.3.3 2.7 4.8 5.4 10s6.6 12.6 8.6 16.5c5.6 10.5 8.3 15.9 8.2 16.5 0 .3.5 1.2 1.2 2s3.2 5.5 5.7 10.5c2.4 4.9 4.6 9.2 4.9 9.5.4.3 2.3 3.9 4.4 8 6.4 12.6 24.8 47.8 36.6 70 3.9 7.4 8.5 16.2 10.1 19.5 1.7 3.3 5.1 9.8 7.6 14.5 2.4 4.7 6.5 12.4 9 17.3l4.5 8.7h91.4c61.2 0 91.4-.3 91.4-1 0-.6-5.1-10.1-11.3-21.3-11.6-20.6-17-30.2-19.4-34.7-5.2-9.3-17-30.5-24.1-43.2-1.2-2.1-3.8-6.8-5.8-10.5-2.1-3.7-5-9-6.6-11.6-1.5-2.6-2.8-5-2.8-5.3 0-.2-1.1-2.1-2.3-4.2-1.3-2-4.1-6.9-6.1-10.7-2.1-3.9-4.5-8.4-5.5-10-1-1.7-3.1-5.5-4.8-8.5-1.6-3-4.2-7.6-5.7-10.3-1.4-2.6-3.7-6.7-5.1-9.2-4.4-7.9-7.7-13.8-12-21.5-4.2-7.4-6.4-11.5-13.3-24-1.9-3.6-4.4-7.7-5.4-9.3-1.1-1.5-1.6-2.7-1.2-2.7.4 0 .1-.8-.7-1.8-1.4-1.7-2.1-2.8-6-10-1.1-2-3.6-6.4-5.5-9.7-1.9-3.3-5.1-9.1-7.2-12.9-2-3.8-4.4-8.1-5.2-9.5-6.7-11.8-12.8-22.8-14.3-25.7-.9-1.9-1.8-3.4-2-3.3-.1.1-2.9 1.5-6.2 3.3z"/></svg>
