<svg xmlns="http://www.w3.org/2000/svg" width="512" height="512" viewBox="0 0 512 512">
	<path fill="#333" d="M512 480c0 17.673-14.327 32-32 32H32c-17.673 0-32-14.327-32-32V32C0 14.327 14.327 0 32 0h448c17.673 0 32 14.327 32 32v448z"/>
	<path fill="#F7F7F7" d="M137 414.328V97.672h140.042c14.566 0 28.02 3.055 40.363 9.143 12.335 6.097 22.97 14.125 31.89 24.083 8.918 9.968 15.904 21.263 20.96 33.896 5.054 12.64 7.582 25.355 7.582 38.133 0 20.516-5.13 39.176-15.388 55.97-10.258 16.802-24.16 28.923-41.7 36.35L393 414.326h-69.13l-64.668-106.145h-60.655v106.146H137zm61.547-160.112h77.157c5.643 0 10.926-1.338 15.832-4.015 4.906-2.674 9.145-6.31 12.712-10.926 3.566-4.604 6.39-10.034 8.473-16.278 2.08-6.244 3.124-12.934 3.124-20.07 0-7.43-1.19-14.27-3.57-20.515-2.386-6.243-5.573-11.662-9.587-16.278-4.014-4.608-8.63-8.175-13.826-10.705-5.204-2.52-10.478-3.79-15.83-3.79h-74.482v102.58z"/>
</svg>
