<svg xmlns="http://www.w3.org/2000/svg" width="320" height="320" viewBox="0 0 320 320"><path fill="#333" d="M320 300c0 11.046-8.954 20-20 20H20c-11.045 0-20-8.954-20-20V20C0 8.954 8.955 0 20 0h280c11.046 0 20 8.955 20 20v280z"/><path fill="#F7F7F7" d="M85.625 258.955V61.045h87.526c9.105 0 17.513 1.91 25.228 5.715 7.71 3.81 14.356 8.828 19.932 15.052 5.573 6.23 9.94 13.29 13.1 21.185 3.16 7.9 4.74 15.847 4.74 23.834 0 12.823-3.207 24.485-9.62 34.982-6.41 10.5-15.1 18.077-26.06 22.718l45.156 74.425H202.42l-40.417-66.34h-37.91v66.34H85.625zm38.467-100.07h48.223c3.527 0 6.83-.836 9.895-2.51 3.066-1.67 5.715-3.943 7.945-6.828 2.228-2.877 3.993-6.27 5.295-10.174 1.3-3.902 1.953-8.083 1.953-12.543 0-4.645-.744-8.92-2.23-12.822-1.492-3.902-3.483-7.29-5.993-10.174-2.51-2.88-5.394-5.11-8.642-6.69-3.252-1.575-6.548-2.37-9.894-2.37h-46.55v64.113l-.002-.002z"/></svg>