<?xml version="1.0" standalone="no"?>
<!DOCTYPE svg PUBLIC "-//W3C//DTD SVG 20010904//EN"
 "http://www.w3.org/TR/2001/REC-SVG-20010904/DTD/svg10.dtd">
<svg version="1.0" xmlns="http://www.w3.org/2000/svg"
 width="16.000000pt" height="16.000000pt" viewBox="0 0 16.000000 16.000000"
 preserveAspectRatio="xMidYMid meet">
<metadata>
Created by potrace 1.11, written by Peter Selinger 2001-2013
</metadata>
<g transform="translate(0.000000,16.000000) scale(0.001408,-0.001408)"
fill="#000000" stroke="none">
<path d="M1090 5680 l0 -5680 1103 2 1102 3 2 1880 c0 1034 2 1890 2 1902 l1
21 1087 -1 1086 -2 55 -90 c30 -49 72 -117 92 -150 140 -225 210 -344 210
-353 0 -7 4 -12 9 -12 5 0 14 -13 21 -30 7 -16 16 -30 21 -30 5 0 9 -6 9 -12
0 -11 44 -84 68 -113 4 -5 15 -25 22 -42 8 -18 18 -33 21 -33 4 0 9 -8 12 -17
3 -10 40 -72 82 -138 41 -66 78 -127 82 -135 4 -8 23 -39 43 -70 20 -30 39
-60 41 -65 7 -16 93 -160 99 -165 4 -3 22 -32 40 -65 19 -33 37 -61 42 -63 4
-2 8 -7 8 -12 0 -5 30 -57 67 -117 36 -59 76 -124 87 -145 12 -20 47 -78 79
-128 31 -51 57 -96 57 -101 0 -5 5 -9 11 -9 5 0 8 -4 5 -9 -4 -5 -3 -11 1 -13
8 -3 73 -105 73 -114 0 -3 5 -10 10 -17 6 -7 60 -93 120 -192 60 -99 112 -185
117 -191 8 -10 20 -31 55 -93 11 -20 35 -58 53 -86 28 -44 57 -90 98 -160 6
-11 24 -39 39 -62 15 -23 28 -43 28 -46 0 -4 109 -187 130 -217 19 -28 54 -85
55 -90 0 -3 12 -23 26 -45 72 -112 129 -208 129 -216 0 -5 5 -9 10 -9 6 0 10
-5 10 -11 0 -6 13 -31 30 -56 16 -24 30 -48 30 -52 0 -30 37 -31 1263 -29
l1235 3 -49 80 c-26 44 -52 85 -57 90 -5 6 -11 15 -13 21 -2 5 -26 46 -52 89
-27 44 -52 87 -57 95 -5 8 -41 66 -79 128 -38 61 -67 112 -63 112 4 0 2 4 -4
8 -6 4 -20 23 -31 42 -10 19 -31 54 -46 77 -15 24 -27 47 -27 52 0 5 -4 11 -9
13 -4 2 -19 22 -32 45 -45 79 -183 308 -189 313 -4 3 -22 32 -40 65 -19 33
-37 61 -42 63 -4 2 -8 12 -8 23 0 10 -4 19 -9 19 -5 0 -16 15 -25 34 -9 19
-31 56 -49 84 -19 27 -37 56 -41 63 -3 8 -15 28 -26 44 -11 17 -23 37 -27 45
-3 8 -14 26 -23 40 -10 14 -27 41 -37 60 -31 54 -147 244 -153 250 -3 3 -11
16 -18 30 -13 27 -34 62 -42 70 -3 3 -12 19 -20 35 -8 17 -18 32 -21 35 -4 3
-16 21 -26 40 -24 41 -327 543 -351 580 -9 14 -17 27 -17 30 -1 3 -17 30 -37
60 -20 31 -47 74 -60 96 -27 46 -114 192 -128 214 -67 106 -130 213 -130 221
0 5 -4 9 -9 9 -5 0 -11 8 -14 17 -3 10 -73 128 -156 263 -82 135 -178 292
-213 349 -35 58 -73 121 -85 140 -13 20 -28 47 -35 61 -7 14 -15 27 -19 30
-12 11 -18 40 -7 40 17 0 263 122 353 175 103 61 264 168 292 194 12 12 25 21
29 21 4 0 32 21 63 47 31 27 67 57 81 68 34 27 277 270 326 325 21 25 55 65
74 90 19 25 37 47 40 50 39 34 310 455 310 481 0 5 5 9 12 9 6 0 9 3 5 6 -3 3
4 23 16 43 12 20 32 56 44 81 61 128 87 185 88 190 0 3 6 15 13 28 7 12 10 22
6 22 -3 0 -2 6 3 13 10 12 101 263 108 296 2 9 10 36 19 61 8 25 17 56 20 70
3 14 10 45 17 70 6 25 12 52 14 60 2 8 4 15 5 15 1 0 3 9 4 20 2 11 6 34 10
50 13 59 21 102 32 175 2 19 7 46 9 60 2 14 7 52 10 85 3 33 8 78 10 100 17
144 24 559 11 660 -3 22 -7 65 -10 95 -14 137 -37 290 -61 390 -3 14 -8 36
-11 50 -7 40 -65 253 -74 275 -4 11 -25 70 -45 130 -21 61 -41 114 -46 120 -5
5 -9 18 -9 30 0 11 -7 30 -15 41 -8 12 -11 24 -8 28 3 3 0 6 -7 6 -7 0 -11 2
-8 6 3 3 -7 32 -23 65 -16 32 -29 62 -29 66 0 7 -93 193 -130 258 -61 109
-104 182 -118 198 -8 9 -12 17 -8 17 4 0 -2 10 -14 22 -11 12 -20 27 -20 34 0
7 -3 14 -7 16 -5 2 -21 23 -38 48 -37 56 -166 233 -174 240 -4 3 -17 18 -30
35 -95 124 -254 292 -402 425 -52 47 -96 87 -99 90 -3 3 -25 21 -50 40 -25 19
-47 37 -50 40 -20 24 -287 207 -385 265 -27 16 -63 37 -80 47 -16 10 -47 26
-67 35 -21 10 -38 21 -38 25 0 5 -9 8 -20 8 -11 0 -20 5 -20 10 0 6 -9 10 -19
10 -11 0 -21 4 -23 8 -3 7 -232 112 -253 116 -5 1 -20 8 -32 14 -13 7 -23 10
-23 6 0 -3 -6 -2 -12 3 -10 8 -126 50 -158 58 -42 11 -68 18 -80 22 -8 3 -23
8 -32 9 -10 2 -50 13 -90 23 -40 11 -89 22 -108 26 -42 7 -157 25 -185 29 -42
6 -122 17 -170 23 -27 4 -1241 8 -2697 10 l-2648 4 0 -5681z m5216 4837 c22
-2 58 -8 80 -11 21 -4 55 -9 74 -11 19 -3 46 -7 60 -10 14 -4 39 -9 55 -12
142 -26 407 -116 524 -178 25 -14 49 -25 53 -25 3 0 45 -22 93 -50 48 -27 89
-50 91 -50 3 0 10 -4 17 -10 7 -5 60 -42 120 -81 59 -39 107 -75 107 -80 0 -5
6 -9 13 -9 7 0 27 -12 44 -27 17 -16 52 -46 79 -68 50 -42 241 -230 284 -281
67 -77 180 -224 180 -233 0 -6 4 -11 10 -11 5 0 19 -18 30 -40 11 -22 25 -40
31 -40 6 0 7 -4 4 -10 -3 -5 -2 -10 3 -10 5 0 12 -8 16 -17 3 -10 29 -54 56
-98 58 -93 200 -376 200 -399 0 -9 4 -16 9 -16 5 0 11 -10 14 -22 3 -13 24
-75 47 -138 34 -95 81 -251 95 -320 2 -8 8 -35 14 -60 16 -72 22 -108 37 -215
18 -129 23 -223 22 -400 0 -130 -5 -280 -8 -280 -1 0 -3 -22 -6 -50 -6 -62
-12 -110 -14 -110 -1 0 -3 -18 -6 -40 -2 -22 -8 -62 -14 -90 -5 -27 -12 -61
-14 -75 -2 -14 -9 -45 -16 -70 -6 -25 -12 -54 -14 -65 -2 -11 -4 -20 -5 -20
-2 0 -4 -9 -6 -19 -2 -11 -7 -31 -11 -45 -4 -14 -8 -29 -9 -33 -2 -5 -3 -9 -5
-10 -1 -2 -3 -11 -5 -20 -5 -25 -35 -120 -45 -143 -5 -11 -17 -42 -26 -70 -17
-52 -25 -71 -90 -215 -46 -101 -169 -326 -189 -347 -8 -8 -15 -19 -15 -24 0
-9 -8 -21 -37 -54 -7 -7 -13 -16 -13 -20 0 -11 -122 -168 -199 -255 -87 -98
-255 -260 -317 -305 -15 -11 -32 -25 -38 -30 -25 -24 -157 -115 -243 -168
-131 -80 -383 -206 -383 -190 0 3 -8 -1 -17 -10 -10 -8 -20 -15 -23 -15 -5 1
-159 -45 -210 -63 -14 -4 -42 -11 -63 -15 -20 -3 -40 -10 -43 -15 -3 -5 -9 -7
-14 -4 -5 3 -30 1 -57 -5 -26 -6 -64 -13 -83 -15 -19 -3 -46 -7 -60 -10 -68
-14 -272 -17 -1325 -18 l-1140 -2 -1 -125 c-2 -165 0 -153 -26 -138 -13 7 -25
16 -28 19 -5 6 -93 56 -165 93 -22 12 -42 24 -45 27 -3 3 -27 18 -55 33 -27
16 -75 43 -106 62 -31 19 -61 34 -67 34 -6 0 -12 4 -14 8 -3 8 -110 70 -165
96 -13 6 -23 14 -23 17 0 14 62 54 180 117 19 10 82 46 138 80 57 34 107 62
112 62 4 0 13 7 20 15 7 8 21 15 31 15 11 0 19 4 19 9 0 5 19 19 43 30 23 12
66 35 95 52 28 16 53 26 53 22 1 -5 2 -62 3 -128 l1 -120 1155 0 c1024 0 1243
3 1327 19 11 3 43 8 70 12 53 9 62 11 66 13 1 2 13 5 26 7 51 9 145 36 214 60
408 146 795 436 1064 799 41 55 80 107 86 116 63 84 180 301 252 468 36 84
119 324 129 371 3 14 9 40 15 58 5 17 7 32 5 32 -3 0 -2 6 2 12 5 7 9 19 10
28 0 8 8 49 17 91 9 42 19 98 23 125 6 49 10 77 19 137 2 17 7 99 9 180 3 81
8 152 11 157 4 6 3 10 -2 10 -4 0 -8 35 -9 78 -1 90 -16 251 -29 322 -3 14 -8
41 -11 60 -3 19 -7 42 -10 50 -3 8 -8 29 -11 45 -2 17 -16 71 -30 120 -14 50
-26 95 -27 100 -2 9 -39 112 -53 145 -3 8 -7 20 -8 25 -6 23 -73 167 -125 270
-69 134 -80 154 -102 179 -10 10 -15 23 -12 28 3 4 1 8 -4 8 -4 0 -18 17 -29
38 -12 20 -53 78 -90 129 -265 352 -590 621 -976 807 -65 31 -122 56 -127 56
-6 0 -18 4 -28 9 -36 18 -119 49 -154 57 -5 1 -9 2 -10 4 -3 2 -20 6 -58 13
-14 3 -26 6 -27 8 -2 1 -7 3 -13 4 -5 1 -11 3 -12 4 -2 2 -14 4 -28 7 -14 2
-41 7 -60 11 -38 7 -46 9 -105 17 -22 3 -53 8 -70 11 -56 12 -3965 12 -3966 0
0 -5 0 -2116 -1 -4690 l0 -4680 -128 0 c-71 0 -132 3 -136 7 -5 5 -10 9548 -5
9634 1 9 547 11 2109 9 1159 -2 2125 -5 2148 -8z m-202 -1101 c38 -4 73 -9 79
-13 5 -3 23 -7 40 -8 42 -5 196 -53 225 -71 12 -8 22 -12 22 -10 0 6 143 -64
150 -73 3 -3 21 -14 40 -24 61 -31 207 -145 281 -220 107 -107 249 -288 249
-315 0 -6 4 -12 9 -14 11 -4 98 -165 134 -248 31 -71 94 -249 103 -290 3 -14
7 -34 9 -45 2 -11 4 -20 5 -20 1 0 3 -11 6 -25 2 -14 8 -47 14 -75 29 -158 40
-418 24 -580 -4 -38 -8 -87 -8 -107 -1 -21 -3 -38 -6 -38 -3 0 -7 -12 -8 -27
-1 -16 -4 -37 -6 -48 -34 -166 -54 -243 -79 -310 -7 -16 -12 -32 -13 -35 0 -3
-6 -18 -12 -33 -7 -16 -12 -31 -12 -34 0 -13 -55 -129 -65 -135 -5 -4 -7 -8
-3 -8 12 0 -80 -168 -141 -255 -51 -73 -163 -204 -213 -250 -68 -62 -175 -145
-186 -145 -6 0 -12 -4 -14 -8 -10 -24 -199 -119 -304 -152 -66 -21 -80 -24
-149 -35 -16 -3 -43 -8 -60 -11 -38 -7 -2903 -12 -2913 -4 -4 3 -7 828 -7
1835 l0 1830 24 5 c38 8 2707 4 2785 -4z"/>
</g>
</svg>
