<?xml version="1.0" standalone="no"?>
<!DOCTYPE svg PUBLIC "-//W3C//DTD SVG 20010904//EN"
 "http://www.w3.org/TR/2001/REC-SVG-20010904/DTD/svg10.dtd">
<svg version="1.0" xmlns="http://www.w3.org/2000/svg"
 width="16.000000pt" height="16.000000pt" viewBox="0 0 16.000000 16.000000"
 preserveAspectRatio="xMidYMid meet">
<metadata>
Created by potrace 1.11, written by Peter Selinger 2001-2013
</metadata>
<g transform="translate(0.000000,16.000000) scale(0.001408,-0.001408)"
fill="#000000" stroke="none">
<path d="M1090 5680 l0 -5680 1103 2 1102 3 2 1880 c0 1034 2 1890 2 1902 l1
21 1087 -1 1086 -2 55 -90 c30 -49 72 -117 92 -150 136 -219 203 -331 211
-351 4 -13 13 -24 18 -24 5 0 12 -11 15 -25 4 -14 11 -25 16 -25 6 0 10 -6 10
-12 0 -11 44 -84 68 -113 4 -5 15 -25 22 -42 8 -18 18 -33 21 -33 4 0 9 -8 12
-17 3 -10 40 -72 82 -138 41 -66 78 -127 82 -135 4 -8 23 -39 43 -70 20 -30
39 -60 41 -65 7 -16 93 -160 99 -165 4 -3 22 -32 40 -65 19 -33 37 -61 42 -63
4 -2 8 -7 8 -12 0 -5 30 -57 67 -117 36 -59 76 -124 87 -145 12 -20 47 -78 79
-128 31 -51 57 -96 57 -101 0 -5 5 -9 11 -9 5 0 8 -4 5 -9 -4 -5 -3 -11 1 -13
8 -3 73 -105 73 -114 0 -3 5 -10 10 -17 6 -7 60 -93 120 -192 60 -99 112 -185
117 -191 8 -10 20 -31 55 -93 11 -20 35 -58 53 -86 28 -44 57 -90 98 -160 6
-11 23 -38 38 -60 14 -22 28 -45 30 -50 6 -15 123 -209 129 -215 5 -5 25 -37
70 -115 9 -16 45 -74 79 -128 33 -54 61 -102 61 -108 0 -5 5 -9 10 -9 6 0 10
-5 10 -11 0 -6 13 -31 30 -56 16 -24 30 -48 30 -52 0 -30 37 -31 1263 -29
l1235 3 -49 80 c-26 44 -52 85 -57 90 -5 6 -11 15 -13 21 -2 5 -26 46 -52 89
-27 44 -52 87 -57 95 -5 8 -41 65 -79 127 -38 61 -66 114 -63 117 3 3 1 6 -4
6 -5 0 -18 17 -29 38 -11 20 -22 39 -25 42 -3 3 -10 14 -16 25 -28 51 -39 70
-45 75 -3 3 -17 24 -30 47 -45 79 -183 308 -189 313 -4 3 -22 32 -40 65 -19
33 -37 61 -42 63 -4 2 -8 12 -8 23 0 10 -4 19 -9 19 -5 0 -15 12 -22 28 -21
40 -72 126 -79 132 -4 3 -10 12 -13 20 -4 8 -16 29 -27 45 -11 17 -23 37 -27
45 -3 8 -19 34 -35 57 -15 23 -28 46 -28 50 0 5 -9 19 -20 31 -12 12 -19 22
-16 22 5 0 -92 161 -111 185 -5 6 -14 21 -20 35 -14 27 -35 62 -43 70 -3 3
-12 19 -20 35 -8 17 -23 39 -32 49 -10 11 -18 23 -18 28 0 4 -16 32 -35 62
-19 30 -35 59 -35 65 0 5 -3 11 -8 13 -4 2 -65 100 -136 218 -71 118 -136 223
-144 233 -8 9 -11 17 -7 17 4 0 1 8 -7 18 -14 15 -48 69 -170 272 -21 36 -43
72 -48 80 -67 105 -130 213 -130 221 0 5 -4 9 -10 9 -5 0 -10 5 -10 11 0 6
-13 30 -30 54 -17 24 -30 46 -30 50 0 4 -14 26 -30 50 -17 24 -30 46 -30 49 0
2 -23 42 -52 88 -28 46 -101 164 -161 263 -60 99 -118 194 -128 210 -10 17
-24 41 -31 55 -7 14 -15 27 -19 30 -12 11 -18 40 -7 40 20 0 274 128 370 186
51 31 109 66 128 77 19 12 37 24 40 27 3 3 30 23 60 44 30 22 57 43 58 48 2 4
8 8 14 8 6 0 36 21 67 47 31 27 67 57 81 68 34 27 277 270 326 325 21 25 55
65 74 90 19 25 37 47 40 50 39 34 310 455 310 481 0 5 5 9 12 9 6 0 9 3 5 6
-3 3 4 23 16 43 12 20 32 56 44 81 61 128 87 185 88 190 0 3 6 14 12 25 6 11
11 22 11 25 1 5 3 13 42 115 12 33 23 65 25 70 1 6 5 18 8 28 4 9 10 25 14 35
7 21 10 31 17 57 2 11 11 41 20 66 9 25 18 56 20 70 3 13 5 25 7 27 2 2 1 1
14 57 10 47 12 54 15 58 1 1 3 11 4 22 2 11 6 34 10 50 10 46 18 86 31 163 8
47 15 104 20 162 3 30 8 78 11 105 13 134 16 194 15 365 0 102 0 193 -1 203 0
9 0 23 0 30 1 6 -1 30 -4 52 -3 22 -7 65 -10 95 -13 136 -38 293 -61 388 -3
12 -7 32 -10 45 -2 12 -8 36 -12 52 -4 17 -8 35 -9 40 -1 6 -3 12 -4 15 -1 3
-3 12 -5 20 -17 65 -41 147 -46 155 -4 6 -9 24 -13 40 -4 17 -24 73 -43 125
-19 52 -36 99 -38 105 -1 5 -8 24 -15 40 -7 17 -13 33 -12 38 1 4 -3 7 -10 7
-6 0 -9 2 -6 6 3 3 -7 32 -23 65 -16 32 -29 62 -29 66 0 7 -94 194 -130 258
-77 137 -115 201 -124 207 -6 4 -7 8 -3 8 4 0 -1 10 -13 22 -11 12 -20 27 -20
34 0 7 -3 14 -7 16 -5 2 -21 23 -38 48 -37 56 -166 233 -174 240 -4 3 -17 18
-30 35 -95 124 -254 292 -402 425 -52 47 -96 87 -99 90 -3 3 -25 21 -50 40
-25 19 -47 37 -50 40 -24 28 -350 250 -367 250 -6 0 -13 3 -15 8 -4 9 -111 73
-155 93 -18 7 -33 17 -33 21 0 5 -9 8 -20 8 -11 0 -20 5 -20 10 0 6 -9 10 -19
10 -11 0 -21 3 -23 8 -1 4 -48 27 -103 52 -55 24 -104 47 -110 50 -5 4 -31 13
-57 21 -27 7 -48 17 -48 21 0 4 -3 7 -7 6 -5 -1 -39 9 -78 22 -38 13 -72 25
-75 25 -42 11 -68 18 -80 22 -8 3 -23 8 -32 9 -10 2 -50 13 -90 23 -40 11 -89
22 -108 26 -42 7 -157 25 -185 29 -43 6 -122 17 -170 23 -27 4 -1241 8 -2697
10 l-2648 4 0 -5681z m5014 3736 c38 -4 74 -9 79 -13 5 -3 21 -7 36 -8 14 -1
53 -10 86 -20 33 -10 65 -19 70 -20 6 -2 28 -10 50 -19 22 -10 41 -17 42 -17
6 0 149 -72 153 -78 3 -3 21 -14 40 -24 61 -31 207 -145 281 -220 107 -107
249 -288 249 -315 0 -6 4 -12 8 -14 11 -4 102 -168 124 -223 9 -22 24 -58 34
-80 10 -22 18 -42 19 -45 0 -3 13 -41 28 -86 27 -79 36 -110 42 -149 2 -11 4
-20 5 -20 1 0 3 -11 6 -25 2 -14 8 -47 14 -75 29 -158 40 -418 24 -580 -4 -38
-8 -87 -8 -107 -1 -21 -3 -38 -6 -38 -4 0 -6 -10 -7 -22 0 -13 -3 -34 -6 -48
-3 -14 -12 -59 -21 -100 -17 -79 -40 -165 -59 -215 -7 -16 -12 -32 -13 -35 0
-3 -6 -18 -12 -33 -7 -16 -12 -31 -12 -34 0 -13 -55 -129 -65 -135 -5 -4 -7
-8 -3 -8 13 0 -80 -168 -144 -259 -55 -79 -94 -125 -178 -210 -78 -80 -200
-181 -218 -181 -6 0 -12 -4 -14 -8 -10 -24 -199 -119 -304 -152 -68 -22 -90
-27 -149 -35 -16 -2 -30 -4 -30 -5 0 -16 -2944 -22 -2946 -5 0 5 -2 832 -2
1837 l-2 1827 25 3 c54 6 2719 1 2784 -6z"/>
</g>
</svg>
